<svg xmlns="http://www.w3.org/2000/svg" viewBox="0 0 900 360" role="img" aria-label="Cars Korea"><defs><linearGradient id="g" x1="0" y1="0" x2="1" y2="1"><stop stop-color="#10151d"/><stop offset="1" stop-color="#222936"/></linearGradient><filter id="s" x="-20%" y="-20%" width="140%" height="140%"><feDropShadow dx="0" dy="12" stdDeviation="8" flood-color="#000" flood-opacity=".25"/></filter></defs><rect width="900" height="360" rx="180" fill="url(#g)"/><g filter="url(#s)"><path d="M88 178c28-36 73-61 133-72 62-12 151-9 241 2 56 7 104 23 145 48 49 7 99 16 150 28 24 6 43 22 54 45H85c-6-18-5-35 3-51Z" fill="none" stroke="#fff" stroke-width="15" stroke-linecap="round" stroke-linejoin="round"/><path d="M202 113c42-38 110-56 184-52 74 4 132 31 174 92" fill="none" stroke="#fff" stroke-width="11" stroke-linecap="round"/><path d="M112 229h642" stroke="#fff" stroke-width="14" stroke-linecap="round"/><circle cx="209" cy="239" r="46" fill="#111827" stroke="#fff" stroke-width="12"/><circle cx="209" cy="239" r="30" fill="none" stroke="#d7263d" stroke-width="9"/><circle cx="476" cy="239" r="48" fill="#111827" stroke="#fff" stroke-width="12"/><circle cx="476" cy="239" r="30" fill="#fff"/><path d="M446 239a30 30 0 0 1 60 0H446Z" fill="#d7263d"/><path d="M446 239a30 30 0 0 0 60 0H446Z" fill="#174ea6"/></g><text x="118" y="300" fill="#fff" font-family="Arial, Helvetica, sans-serif" font-size="74" font-weight="300" letter-spacing="-4">CARS</text><text x="355" y="300" fill="#fff" font-family="Arial, Helvetica, sans-serif" font-size="74" font-weight="300" letter-spacing="-4">KOREA</text><rect x="275" y="297" width="38" height="6" fill="#d7263d" rx="3"/></svg>