<svg xmlns="http://www.w3.org/2000/svg" viewBox="0 0 64 64" aria-label="WhatsApp"><circle cx="32" cy="32" r="30" fill="#25D366"/><path fill="#fff" d="M45.6 37.8c-.7-.4-4.2-2.1-4.8-2.3-.6-.2-1.1-.4-1.6.4-.5.7-1.8 2.3-2.2 2.8-.4.5-.8.5-1.5.2-.7-.4-3-1.1-5.7-3.5-2.1-1.9-3.5-4.2-3.9-4.9-.4-.7 0-1.1.3-1.5.3-.3.7-.8 1.1-1.2.4-.4.5-.7.7-1.2.2-.5.1-.9-.1-1.3-.2-.4-1.6-3.8-2.2-5.2-.6-1.4-1.2-1.2-1.6-1.2h-1.4c-.5 0-1.3.2-2 .9-.7.7-2.6 2.5-2.6 6.1s2.7 7.1 3.1 7.6c.4.5 5.2 8 12.7 11.2 1.8.8 3.2 1.2 4.3 1.6 1.8.6 3.4.5 4.7.3 1.4-.2 4.2-1.7 4.8-3.4.6-1.7.6-3.1.4-3.4-.2-.3-.7-.5-1.5-.9Z"/><path fill="#fff" d="M32 8.5C19 8.5 8.5 19 8.5 32c0 4.2 1.1 8.1 3.1 11.5L8.4 55.6l12.4-3.2c3.3 1.8 7.1 2.8 11.2 2.8C45 55.2 55.5 44.7 55.5 31.7 55.5 18.9 45 8.5 32 8.5Zm0 42.7c-3.7 0-7.1-1-10.1-2.8l-.7-.4-7.4 1.9 2-7.2-.5-.8c-1.9-3-2.9-6.5-2.9-10.1 0-10.8 8.8-19.6 19.6-19.6s19.6 8.8 19.6 19.6S42.8 51.2 32 51.2Z"/></svg>